<svg width="48" height="48" viewBox="0 0 48 48" fill="none" xmlns="http://www.w3.org/2000/svg">
  <defs>
    <linearGradient id="goldGrad" x1="0%" y1="0%" x2="100%" y2="100%">
      <stop offset="0%" style="stop-color:#E8D4A0;stop-opacity:1" />
      <stop offset="100%" style="stop-color:#B8860B;stop-opacity:1" />
    </linearGradient>
  </defs>
  
  <!-- Main wallet body -->
  <path d="M 8 16 L 8 32 Q 8 36 12 36 L 36 36 Q 40 36 40 32 L 40 16 Q 40 12 36 12 L 12 12 Q 8 12 8 16 Z" 
        fill="none" stroke="url(#goldGrad)" stroke-width="2" stroke-linecap="round" stroke-linejoin="round"/>
  
  <!-- Wallet flap/opening top -->
  <path d="M 8 16 L 12 10 L 36 10 Q 40 10 40 14 L 40 16" 
        fill="none" stroke="url(#goldGrad)" stroke-width="2" stroke-linecap="round" stroke-linejoin="round"/>
  
  <!-- Cards sticking out (3 cards) -->
  <line x1="14" y1="10" x2="18" y2="6" stroke="url(#goldGrad)" stroke-width="2" stroke-linecap="round"/>
  <line x1="20" y1="10" x2="24" y2="6" stroke="url(#goldGrad)" stroke-width="2" stroke-linecap="round"/>
  <line x1="26" y1="10" x2="30" y2="6" stroke="url(#goldGrad)" stroke-width="2" stroke-linecap="round"/>
  
  <!-- Clip/button on right side -->
  <rect x="32" y="22" width="8" height="10" rx="2" fill="none" stroke="url(#goldGrad)" stroke-width="2"/>
  <circle cx="36" cy="27" r="1.5" fill="url(#goldGrad)"/>
</svg>
